<svg width="2501" height="2237" viewBox="0 0 2501 2237" fill="none" xmlns="http://www.w3.org/2000/svg">
<path d="M2463.82 1535.42L2461.63 1532.13L2460.53 1531.04C2421.13 1492.73 2298.55 1383.28 2117.95 1279.3C2183.62 1278.2 2230.69 1266.17 2250.39 1234.42C2288.69 1177.51 2157.35 987.064 1911.09 856.816C1911.09 856.816 1864.02 828.359 1802.73 803.185C1856.36 733.136 1862.93 562.392 1812.58 375.23C1751.29 145.381 1628.7 -20.9849 1538.95 3.09448C1448.11 27.1738 1424.03 232.943 1485.32 461.696C1494.08 496.721 1505.02 529.556 1517.06 561.297C1480.94 522.989 1441.54 486.87 1399.95 454.035C1212.79 307.37 1014.68 248.266 956.67 321.598C898.661 394.931 1003.73 574.431 1189.8 720.002C1267.51 781.295 1347.41 827.264 1418.56 854.627L1416.37 857.911C1369.3 920.298 1309.1 980.497 1237.96 1035.22C1007.02 1216.91 726.822 1292.43 530.904 1254.13C429.114 1143.58 244.141 1214.72 244.141 1364.67C244.141 1428.15 280.26 1486.16 338.269 1513.53C197.076 1742.28 97.4755 1953.52 23.0484 2137.4V2138.49C21.9539 2140.68 21.9539 2141.78 20.8594 2143.97C9.91426 2173.52 -28.3938 2286.25 43.8442 2211.83C240.857 2007.15 674.285 1626.26 1314.58 1490.54C1765.52 1396.41 2170.49 1483.97 2446.31 1593.43C2545.91 1628.45 2480.24 1552.93 2463.82 1535.42ZM1958.15 1111.84C1864.02 1111.84 1864.02 971.74 1958.15 971.74C2051.19 971.74 2051.19 1111.84 1958.15 1111.84Z" fill="#5A61FF"/>
</svg>
