<svg width="2501" height="2237" viewBox="0 0 2501 2237" fill="none" xmlns="http://www.w3.org/2000/svg">
<path d="M2463.82 1535.42L2461.63 1532.13L2460.53 1531.04C2421.13 1492.73 2298.55 1383.28 2117.95 1279.3C2183.62 1278.2 2230.69 1266.17 2250.39 1234.42C2288.69 1177.51 2157.35 987.064 1911.09 856.816C1911.09 856.816 1864.02 828.359 1802.73 803.185C1856.36 733.136 1862.93 562.392 1812.58 375.23C1751.29 145.381 1628.7 -20.9849 1538.95 3.09448C1448.11 27.1738 1424.03 232.943 1485.32 461.696C1494.08 496.721 1505.02 529.556 1517.06 561.297C1480.94 522.989 1441.54 486.87 1399.95 454.035C1212.79 307.37 1014.68 248.266 956.67 321.598C898.661 394.931 1003.73 574.431 1189.8 720.002C1267.51 781.295 1347.41 827.264 1418.56 854.627L1416.37 857.911C1369.3 920.298 1309.1 980.497 1237.96 1035.22C1007.02 1216.91 726.822 1292.43 530.904 1254.13C429.114 1143.58 244.141 1214.72 244.141 1364.67C244.141 1428.15 280.26 1486.16 338.269 1513.53C197.076 1742.28 97.4755 1953.52 23.0484 2137.4V2138.49C21.9539 2140.68 21.9539 2141.78 20.8594 2143.97C9.91426 2173.52 -28.3938 2286.25 43.8442 2211.83C240.857 2007.15 674.285 1626.26 1314.58 1490.54C1765.52 1396.41 2170.49 1483.97 2446.31 1593.43C2545.91 1628.45 2480.24 1552.93 2463.82 1535.42ZM1958.15 1111.84C1864.02 1111.84 1864.02 971.74 1958.15 971.74C2051.19 971.74 2051.19 1111.84 1958.15 1111.84Z" fill="#5A61FF"/>
<path d="M81.22 1990.43L175.072 1980C179.812 2004.65 195.928 2015.55 227.686 2015.55C256.126 2015.55 272.242 2007.49 272.242 1992.8C272.242 1985.69 268.45 1979.52 261.814 1975.73C255.178 1971.94 249.016 1970.04 222.946 1964.83C186.922 1957.72 168.436 1952.98 152.794 1947.77C130.042 1939.23 114.4 1928.33 105.394 1914.11C97.81 1901.31 93.544 1885.2 93.544 1869.08C93.544 1812.2 141.418 1777.6 220.576 1777.6C265.606 1777.6 299.26 1787.55 321.538 1807.94C337.18 1821.68 344.764 1835.43 352.348 1861.97L260.866 1871.93C258.496 1852.49 246.646 1843.96 221.05 1843.96C196.402 1843.96 181.234 1852.02 181.234 1864.34C181.234 1877.14 191.188 1881.88 238.114 1892.31C284.566 1902.26 299.26 1906.53 315.85 1915.06C346.66 1930.23 361.354 1953.45 361.354 1987.58C361.354 2012.7 352.822 2035.46 337.18 2050.62C314.428 2073.38 275.56 2085.23 224.842 2085.23C165.118 2085.23 122.932 2069.11 100.18 2037.83C90.7 2024.55 85.96 2013.18 81.22 1990.43ZM602.287 1787.55H700.405C697.561 1809.83 696.613 1829.74 696.613 1858.65V2005.12C696.613 2037.83 697.561 2057.26 700.405 2076.22H606.079V2055.84C606.079 2053.47 606.079 2046.36 606.553 2043.04C575.269 2072.43 548.251 2083.8 507.961 2083.8C476.203 2083.8 450.607 2074.8 432.595 2057.26C413.635 2038.3 405.577 2015.07 405.577 1977.63V1858.65C405.577 1831.16 404.155 1807.46 401.785 1787.55H500.377C497.533 1810.31 496.585 1830.21 496.585 1858.65V1955.82C496.585 1975.26 498.481 1983.79 504.169 1991.37C510.805 1999.91 521.233 2004.65 534.979 2004.65C561.049 2004.65 587.593 1986.16 606.079 1955.82V1858.65C606.079 1832.11 605.131 1812.2 602.287 1787.55ZM847.996 2076.69H750.352C753.196 2054.89 754.144 2034.98 754.144 2005.12V1859.13C754.144 1823.1 753.196 1806.04 750.352 1787.55H844.204V1807.46C844.204 1809.36 844.204 1809.36 843.73 1814.1C843.73 1814.1 843.73 1815.05 843.73 1816.47C843.73 1816.94 843.73 1817.89 843.73 1818.84C867.904 1792.29 896.818 1779.97 934.264 1779.97C958.912 1779.97 979.294 1785.66 994.936 1797.03C1003.47 1803.2 1008.21 1808.88 1014.37 1820.73C1043.76 1791.82 1072.67 1779.5 1113.91 1779.5C1181.69 1779.5 1216.29 1816.47 1216.29 1888.04V2005.59C1216.29 2034.98 1217.24 2054.42 1220.09 2076.69H1121.49C1124.34 2054.42 1125.29 2037.35 1125.29 2005.12V1907.48C1125.29 1871.93 1114.86 1858.18 1087.84 1858.18C1063.67 1858.18 1041.86 1877.14 1030.01 1908.9V2005.59C1030.01 2034.03 1030.96 2053.94 1033.8 2076.69H935.212C938.056 2055.36 939.004 2035.46 939.004 2005.12V1907.48C939.004 1887.57 937.108 1878.56 930.946 1870.5C925.732 1862.92 916.252 1858.65 904.876 1858.65C879.28 1858.65 857.476 1877.14 844.204 1909.37V2005.12C844.204 2034.98 845.152 2053.47 847.996 2076.69ZM1557.44 1958.67H1344.14C1348.88 1997.06 1371.16 2017.44 1408.61 2017.44C1427.57 2017.44 1444.16 2011.28 1456.48 1999.91C1463.59 1993.27 1466.91 1988.06 1470.7 1975.73L1553.18 1998.96C1542.28 2023.61 1535.17 2034.51 1521.89 2047.78C1494.88 2074.32 1456.96 2088.07 1410.03 2088.07C1363.58 2088.07 1327.08 2074.8 1300.06 2047.78C1272.1 2019.34 1256.93 1979.05 1256.93 1932.12C1256.93 1838.27 1317.13 1776.18 1407.66 1776.18C1481.6 1776.18 1533.27 1816.47 1549.86 1887.09C1553.65 1902.26 1555.55 1922.17 1556.97 1949.19C1556.97 1951.08 1556.97 1953.93 1557.44 1958.67ZM1345.57 1893.26H1467.38C1460.75 1862.92 1440.37 1846.8 1407.66 1846.8C1374.01 1846.8 1353.62 1861.97 1345.57 1893.26ZM1831.64 1787.55L1808.89 1872.87C1787.09 1866.24 1775.24 1863.87 1760.54 1863.87C1736.37 1863.87 1717.88 1872.4 1704.14 1889.46C1695.13 1900.84 1691.81 1910.79 1689.92 1931.65V2005.59C1689.92 2035.93 1690.86 2053.94 1693.71 2076.69H1595.59C1598.43 2052.99 1599.38 2035.93 1599.38 2005.12V1859.13C1599.38 1824.53 1598.43 1807.94 1595.59 1787.55H1689.92V1825C1713.14 1794.66 1741.58 1781.87 1784.72 1781.87C1799.88 1781.87 1809.36 1782.81 1831.64 1787.55ZM2095.95 1787.55L2073.2 1872.87C2051.4 1866.24 2039.55 1863.87 2024.85 1863.87C2000.68 1863.87 1982.19 1872.4 1968.45 1889.46C1959.44 1900.84 1956.12 1910.79 1954.23 1931.65V2005.59C1954.23 2035.93 1955.18 2053.94 1958.02 2076.69H1859.9C1862.75 2052.99 1863.69 2035.93 1863.69 2005.12V1859.13C1863.69 1824.53 1862.75 1807.94 1859.9 1787.55H1954.23V1825C1977.45 1794.66 2005.89 1781.87 2049.03 1781.87C2064.2 1781.87 2073.68 1782.81 2095.95 1787.55ZM2219.49 2051.1L2130.85 1851.07C2110.47 1803.67 2108.57 1799.4 2102.41 1787.55H2205.27C2207.64 1802.72 2213.8 1823.1 2223.75 1848.7L2267.36 1958.19L2309.55 1850.6C2322.82 1817.89 2327.08 1804.14 2329.93 1787.55H2432.79C2420.94 1812.2 2420.94 1812.2 2404.35 1851.07L2295.8 2101.82C2276.84 2146.37 2242.71 2166.75 2188.68 2166.75C2167.82 2166.75 2149.81 2164.38 2123.74 2158.7L2134.17 2083.33C2149.81 2091.39 2158.81 2093.76 2171.14 2093.76C2189.15 2093.76 2202.42 2085.7 2209.53 2071.48L2219.49 2051.1Z" fill="black"/>
</svg>
